<?xml version="1.0" standalone="no"?><!DOCTYPE svg PUBLIC "-//W3C//DTD SVG 1.1//EN" "http://www.w3.org/Graphics/SVG/1.1/DTD/svg11.dtd"><svg t="1711476488802" class="icon" viewBox="0 0 1024 1024" version="1.1" xmlns="http://www.w3.org/2000/svg" p-id="4375" xmlns:xlink="http://www.w3.org/1999/xlink" width="36" height="36"><path d="M512 21.333A490.667 490.667 0 1 0 1002.667 512 490.667 490.667 0 0 0 512 21.333zM853.333 544h83.627A424.32 424.32 0 0 1 835.2 789.333l-59.093-59.093a32 32 0 0 0-45.227 45.227l58.453 59.733A424.32 424.32 0 0 1 544 936.96v-83.627a32 32 0 0 0-64 0v83.627A424.32 424.32 0 0 1 234.667 835.2l59.093-59.093a32 32 0 0 0-45.227-45.227L188.8 789.333A424.32 424.32 0 0 1 87.04 544h83.627a32 32 0 0 0 0-64H87.04A424.32 424.32 0 0 1 188.8 234.667l59.093 59.093a32 32 0 0 0 45.227-45.227L234.667 188.8A424.32 424.32 0 0 1 480 87.04v83.627a32 32 0 0 0 64 0V87.04A424.32 424.32 0 0 1 789.333 188.8l-59.093 59.093a32 32 0 1 0 45.227 45.227l59.733-58.453A424.32 424.32 0 0 1 936.96 480h-83.627a32 32 0 0 0 0 64z" p-id="4376"></path><path d="M512 341.333c-42.667 0-106.667 175.787-106.667 234.667a106.667 106.667 0 0 0 213.334 0c0-58.88-64-234.667-106.667-234.667z m0 277.334A42.667 42.667 0 0 1 469.333 576 460.8 460.8 0 0 1 512 437.973 460.8 460.8 0 0 1 554.667 576 42.667 42.667 0 0 1 512 618.667z" p-id="4377"></path></svg>